HIERARCHY
ROOT Hips
{
    OFFSET   0.000000   0.000000   0.000000
    CHANNELS 6 Xposition Yposition Zposition Zrotation Xrotation Yrotation
    JOINT Chest
    {
        OFFSET   0.000000   8.007230   0.000000
        CHANNELS 3 Zrotation Xrotation Yrotation
        JOINT Chest2
        {
            OFFSET   0.000000  22.077100   0.000000
            CHANNELS 3 Zrotation Xrotation Yrotation
            JOINT Neck
            {
                OFFSET   0.000000  23.255100   0.000000
                CHANNELS 3 Zrotation Xrotation Yrotation
                JOINT Head
                {
                    OFFSET   0.000000  14.370100   1.956600
                    CHANNELS 3 Zrotation Xrotation Yrotation
                    End Site
                    {
                        OFFSET   0.000000  19.566000   0.000000
                    }
                }
            }
            JOINT LeftCollar
            {
                OFFSET   3.911900  19.017000  -0.467063
                CHANNELS 3 Zrotation Xrotation Yrotation
                JOINT LeftShoulder
                {
                    OFFSET  10.383700   0.000000   0.000000
                    CHANNELS 3 Zrotation Xrotation Yrotation
                    JOINT LeftElbow
                    {
                        OFFSET  26.662100   0.001193   0.000980
                        CHANNELS 3 Zrotation Xrotation Yrotation
                        JOINT LeftWrist
                        {
                            OFFSET  28.869000  -0.000059  -0.000082
                            CHANNELS 3 Zrotation Xrotation Yrotation
                            JOINT LeftFinger0
                            {
                                OFFSET   2.044650  -2.323450   3.252850
                                CHANNELS 3 Zrotation Xrotation Yrotation
                                JOINT LeftFinger01
                                {
                                    OFFSET   3.088130   0.000000   0.000000
                                    CHANNELS 3 Zrotation Xrotation Yrotation
                                    JOINT LeftFinger02
                                    {
                                        OFFSET   2.639460   0.000000   0.000000
                                        CHANNELS 3 Zrotation Xrotation Yrotation
                                        End Site
                                        {
                                            OFFSET   2.582190   0.000000   0.000000
                                        }
                                    }
                                }
                            }
                            JOINT LeftFinger1
                            {
                                OFFSET   8.364480   0.000000   3.252850
                                CHANNELS 3 Zrotation Xrotation Yrotation
                                JOINT LeftFinger11
                                {
                                    OFFSET   4.646930   0.000000   0.000000
                                    CHANNELS 3 Zrotation Xrotation Yrotation
                                    JOINT LeftFinger12
                                    {
                                        OFFSET   2.323470   0.000000   0.000000
                                        CHANNELS 3 Zrotation Xrotation Yrotation
                                        End Site
                                        {
                                            OFFSET   2.273050   0.000000   0.000000
                                        }
                                    }
                                }
                            }
                            JOINT LeftFinger2
                            {
                                OFFSET   8.364490   0.000016   1.078090
                                CHANNELS 3 Zrotation Xrotation Yrotation
                                JOINT LeftFinger21
                                {
                                    OFFSET   5.111610   0.000000   0.000000
                                    CHANNELS 3 Zrotation Xrotation Yrotation
                                    JOINT LeftFinger22
                                    {
                                        OFFSET   2.788150   0.000016   0.000000
                                        CHANNELS 3 Zrotation Xrotation Yrotation
                                        End Site
                                        {
                                            OFFSET   2.727660   0.000000   0.000000
                                        }
                                    }
                                }
                            }
                            JOINT LeftFinger3
                            {
                                OFFSET   7.899780   0.000015  -1.078090
                                CHANNELS 3 Zrotation Xrotation Yrotation
                                JOINT LeftFinger31
                                {
                                    OFFSET   4.646930   0.000000   0.000000
                                    CHANNELS 3 Zrotation Xrotation Yrotation
                                    JOINT LeftFinger32
                                    {
                                        OFFSET   2.323470   0.000000   0.000000
                                        CHANNELS 3 Zrotation Xrotation Yrotation
                                        End Site
                                        {
                                            OFFSET   2.273050   0.000000   0.000000
                                        }
                                    }
                                }
                            }
                            JOINT LeftFinger4
                            {
                                OFFSET   7.435090   0.000000  -3.252850
                                CHANNELS 3 Zrotation Xrotation Yrotation
                                JOINT LeftFinger41
                                {
                                    OFFSET   3.717550   0.000000   0.000000
                                    CHANNELS 3 Zrotation Xrotation Yrotation
                                    JOINT LeftFinger42
                                    {
                                        OFFSET   1.858770   0.000000   0.000000
                                        CHANNELS 3 Zrotation Xrotation Yrotation
                                        End Site
                                        {
                                            OFFSET   1.818440   0.000000   0.000000
                                        }
                                    }
                                }
                            }
                        }
                    }
                }
            }
            JOINT RightCollar
            {
                OFFSET  -3.911910  19.017000  -0.467062
                CHANNELS 3 Zrotation Xrotation Yrotation
                JOINT RightShoulder
                {
                    OFFSET -10.383700   0.000014   0.000000
                    CHANNELS 3 Zrotation Xrotation Yrotation
                    JOINT RightElbow
                    {
                        OFFSET -26.662100   0.001225   0.001091
                        CHANNELS 3 Zrotation Xrotation Yrotation
                        JOINT RightWrist
                        {
                            OFFSET -28.869000  -0.000020  -0.000085
                            CHANNELS 3 Zrotation Xrotation Yrotation
                            JOINT RightFinger0
                            {
                                OFFSET  -2.044650  -2.323490   3.252850
                                CHANNELS 3 Zrotation Xrotation Yrotation
                                JOINT RightFinger01
                                {
                                    OFFSET  -3.088130   0.000000   0.000000
                                    CHANNELS 3 Zrotation Xrotation Yrotation
                                    JOINT RightFinger02
                                    {
                                        OFFSET  -2.639460   0.000000   0.000000
                                        CHANNELS 3 Zrotation Xrotation Yrotation
                                        End Site
                                        {
                                            OFFSET  -2.582190   0.000000   0.000000
                                        }
                                    }
                                }
                            }
                            JOINT RightFinger1
                            {
                                OFFSET  -8.364480   0.000000   3.252850
                                CHANNELS 3 Zrotation Xrotation Yrotation
                                JOINT RightFinger11
                                {
                                    OFFSET  -4.646930   0.000000   0.000000
                                    CHANNELS 3 Zrotation Xrotation Yrotation
                                    JOINT RightFinger12
                                    {
                                        OFFSET  -2.323470   0.000000   0.000000
                                        CHANNELS 3 Zrotation Xrotation Yrotation
                                        End Site
                                        {
                                            OFFSET  -2.273050   0.000000   0.000000
                                        }
                                    }
                                }
                            }
                            JOINT RightFinger2
                            {
                                OFFSET  -8.364480   0.000000   1.078090
                                CHANNELS 3 Zrotation Xrotation Yrotation
                                JOINT RightFinger21
                                {
                                    OFFSET  -5.111620   0.000000   0.000000
                                    CHANNELS 3 Zrotation Xrotation Yrotation
                                    JOINT RightFinger22
                                    {
                                        OFFSET  -2.788160   0.000000   0.000000
                                        CHANNELS 3 Zrotation Xrotation Yrotation
                                        End Site
                                        {
                                            OFFSET  -2.727660   0.000000   0.000000
                                        }
                                    }
                                }
                            }
                            JOINT RightFinger3
                            {
                                OFFSET  -7.899780   0.000000  -1.078090
                                CHANNELS 3 Zrotation Xrotation Yrotation
                                JOINT RightFinger31
                                {
                                    OFFSET  -4.646930   0.000000   0.000000
                                    CHANNELS 3 Zrotation Xrotation Yrotation
                                    JOINT RightFinger32
                                    {
                                        OFFSET  -2.323470   0.000000   0.000000
                                        CHANNELS 3 Zrotation Xrotation Yrotation
                                        End Site
                                        {
                                            OFFSET  -2.273050   0.000000   0.000000
                                        }
                                    }
                                }
                            }
                            JOINT RightFinger4
                            {
                                OFFSET  -7.435090   0.000000  -3.252850
                                CHANNELS 3 Zrotation Xrotation Yrotation
                                JOINT RightFinger41
                                {
                                    OFFSET  -3.717550   0.000000   0.000000
                                    CHANNELS 3 Zrotation Xrotation Yrotation
                                    JOINT RightFinger42
                                    {
                                        OFFSET  -1.858760   0.000000   0.000000
                                        CHANNELS 3 Zrotation Xrotation Yrotation
                                        End Site
                                        {
                                            OFFSET  -1.818440   0.000000   0.000000
                                        }
                                    }
                                }
                            }
                        }
                    }
                }
            }
        }
    }
    JOINT LeftHip
    {
        OFFSET   9.783030   0.000000   0.000000
        CHANNELS 3 Zrotation Xrotation Yrotation
        JOINT LeftKnee
        {
            OFFSET   0.000063 -41.789100   0.000608
            CHANNELS 3 Zrotation Xrotation Yrotation
            JOINT LeftAnkle
            {
                OFFSET   0.000048 -41.133200  -0.000184
                CHANNELS 3 Zrotation Xrotation Yrotation
                JOINT LeftToe
                {
                    OFFSET   0.000000  -6.358960  14.674500
                    CHANNELS 3 Zrotation Xrotation Yrotation
                    End Site
                    {
                        OFFSET   0.000000   0.000000   3.913200
                    }
                }
            }
        }
    }
    JOINT RightHip
    {
        OFFSET  -9.783030   0.000000   0.000000
        CHANNELS 3 Zrotation Xrotation Yrotation
        JOINT RightKnee
        {
            OFFSET   0.000071 -41.789100   0.001239
            CHANNELS 3 Zrotation Xrotation Yrotation
            JOINT RightAnkle
            {
                OFFSET   0.000037 -41.133200  -0.000166
                CHANNELS 3 Zrotation Xrotation Yrotation
                JOINT RightToe
                {
                    OFFSET   0.000000  -6.358960  14.674500
                    CHANNELS 3 Zrotation Xrotation Yrotation
                    End Site
                    {
                        OFFSET   0.000000   0.000000   3.913200
                    }
                }
            }
        }
    }
}
MOTION
Frames: 5
Frame Time:   0.016667
 -0.118218  89.375900   0.897617  -0.712281 -16.341000   5.028520   0.041365  11.584700   3.750770  -0.733246  23.146000   7.738180   2.910750  -3.036130   0.154061   4.818610  -6.108330 -11.770800  -5.780130  -6.374180  -0.232640 -67.597700  27.480900  -7.565280  -2.623450  -6.569840 -20.795800  17.230700 -15.878300   5.938240  43.622000  38.164900 -77.333200 -25.937200   0.005808   0.002844  -7.968580   0.003466  -0.003534 -30.158900   5.075950  -8.655170 -24.990100   0.003234  -0.002222 -17.493100   0.008218   0.000436 -28.597700  -0.422671   0.775060 -37.404800   0.000213   0.002576 -24.911600  -0.002833   0.001272 -28.041800  -0.415051   0.778799 -32.289900   0.000274   0.000408 -21.505100  -0.003631   0.005622 -33.145900  -0.482843   0.739149 -49.723200   0.000079   0.001905 -33.115700  -0.003768  -0.000844   6.383110  -4.362970  10.381100  51.953500   1.749050  46.684100 -18.537500 -24.327200  26.567900 -67.799700 -62.807000 -62.239500 -42.165300  41.849500  85.871500  19.276400   0.001252  -0.000318   4.638240   0.008670   0.003490  44.595200   7.969140   8.004940  36.941500   0.005389  -0.007994  26.904400   0.000639  -0.007843  63.961900  -1.975240  -0.975215  63.978700  -0.004601  -0.007961  47.984000  -0.000768  -0.003729  66.132500  -5.636260  -2.498190  66.255200  -0.003259  -0.004627  49.691400  -0.005919  -0.002617  53.794800  -6.015560  -4.381210  81.032200  -0.014742  -0.018755  53.967400  -0.015750  -0.001998   2.529890  18.813100   6.452800   2.129700   0.804587   4.240990  -4.015030  -3.663320   0.371609  -0.000000   0.000000  -0.000000   5.728100  19.639300  -8.401240   0.976296   1.141290 -14.184300  -3.548920  -6.390120  -3.305290  -0.000000   0.000000  -0.000000
 -0.198800  89.362200   0.931663  -0.473991 -16.379900   5.624290   0.033471  11.749600   3.919350  -0.800387  23.472600   8.095860   2.836110  -3.344410   0.165502   4.703550  -6.731330 -12.336200  -5.860560  -6.696400  -0.315957 -67.418800  27.687700  -7.808630  -2.658480  -6.678910 -20.817700  17.280400 -15.883600   5.937850  43.595400  38.159300 -77.322400 -25.994200   0.005885   0.002894  -7.997100   0.003532  -0.003578 -30.171400   5.064130  -8.633890 -24.998600   0.003235  -0.002244 -17.499000   0.008270   0.000481 -28.587500  -0.410951   0.753939 -37.261900   0.000216   0.002575 -24.816400  -0.002833   0.001268 -27.989700  -0.403017   0.757922 -31.947300   0.000274   0.000407 -21.276900  -0.003630   0.005677 -33.166600  -0.469794   0.718555 -49.754000   0.000083   0.001903 -33.136200  -0.003770  -0.000820   6.215390  -4.775550  10.254900  51.577500   0.846119  46.968200 -18.442500 -24.449300  25.487300 -68.421200 -62.766500 -62.123400 -41.684200  41.244900  85.149000  19.090100   0.000993  -0.000200   4.545070   0.008797   0.003436  43.506000   8.479490   8.826240  36.131100   0.005349  -0.008045  26.131700   0.000613  -0.007961  62.767500  -2.168080  -1.120270  62.789100  -0.004778  -0.011014  47.091800  -0.000839  -0.003700  64.928300  -5.729140  -2.679640  65.062400  -0.003530  -0.005110  48.796800  -0.006681  -0.005450  52.492300  -5.476990  -4.194940  79.036400  -0.007560  -0.014841  52.638200  -0.010995  -0.002034   2.563280  18.822700   6.386720   2.128460   0.773360   3.894140  -4.091630  -3.577860   0.223417  -0.000000   0.000000   0.000000   5.722570  19.744100  -8.508480   1.061830   1.071790 -14.417600  -3.684510  -6.421430  -3.545920   0.000000   0.000000  -0.000000
 -0.284327  89.347100   0.962508  -0.228659 -16.388800   6.237850   0.024177  11.900500   4.087620  -0.870336  23.770600   8.453290   2.761570  -3.639310   0.175350   4.588410  -7.328080 -12.925800  -5.949350  -6.996740  -0.414589 -67.216200  27.879400  -8.061990  -2.693590  -6.793460 -20.852200  17.286100 -15.838400   5.945590  43.626500  38.202600 -77.354900 -26.014500   0.005964   0.002957  -8.007270   0.003589  -0.003620 -30.165100   5.069410  -8.645740 -24.994200   0.003234  -0.002263 -17.495900   0.008320   0.000524 -28.580100  -0.402121   0.738113 -37.161300   0.000216   0.002576 -24.749400  -0.002832   0.001264 -27.937300  -0.393677   0.742482 -31.617000   0.000273   0.000407 -21.057000  -0.003631   0.005733 -33.138900  -0.459415   0.703741 -49.712400   0.000083   0.001904 -33.108500  -0.003773  -0.000797   6.010820  -5.154460  10.179900  51.248200  -0.186417  47.205000 -18.458300 -24.602300  24.341800 -69.177200 -62.651700 -62.083500 -41.217500  40.638400  84.434100  19.417200   0.000758  -0.000192   4.708610   0.008924   0.003371  42.619200   8.798210   9.402860  35.464300   0.005320  -0.012471  25.434700   0.000576  -0.011773  61.888000  -2.303920  -1.233210  61.911300  -0.004950  -0.014514  46.434000  -0.000904  -0.003657  64.103200  -5.786880  -2.807580  64.245500  -0.003787  -0.009294  48.184200  -0.007504  -0.009235  51.404000  -5.117770  -4.150550  77.385500  -0.003700  -0.018211  51.538700  -0.009640  -0.006075   2.594390  18.813600   6.309040   2.124990   0.726310   3.529480  -4.171270  -3.485690   0.086557  -0.000000   0.000000   0.000000   5.717140  19.820000  -8.613110   1.154750   1.000490 -14.629000  -3.843210  -6.451060  -3.823310   0.000000   0.000000  -0.000000
 -0.370562  89.330900   0.993212   0.019007 -16.375600   6.862500   0.015849  12.037300   4.247010  -0.936229  24.040800   8.792180   2.685730  -3.920150   0.183634   4.469640  -7.896540 -13.503500  -6.035510  -7.274170  -0.512857 -67.015000  28.048900  -8.307880  -2.719770  -6.894310 -20.892300  17.286200 -15.765000   5.968670  43.698900  38.288000 -77.399000 -26.038400   0.006044   0.003019  -8.019220   0.003645  -0.003662 -30.152900   5.074690  -8.657600 -24.985200   0.003232  -0.002284 -17.489600   0.008370   0.000568 -28.574400  -0.398735   0.732101 -37.087400   0.000215   0.002578 -24.700200  -0.002832   0.001262 -27.891300  -0.389945   0.736732 -31.334200   0.000273   0.000408 -20.868600  -0.003632   0.005790 -33.098000  -0.455210   0.698352 -49.651300   0.000084   0.001905 -33.067800  -0.003774  -0.000773   5.832470  -5.526070  10.010400  50.968600  -1.198740  47.445200 -18.526500 -24.749100  23.225800 -69.929900 -62.552200 -62.051100 -40.785400  40.053800  83.762900  19.744300   0.000539  -0.000184   4.872140   0.009042   0.003306  41.673200   9.053230   9.976420  34.745100   0.005286  -0.018830  24.709800   0.000541  -0.017072  60.934700  -2.443120  -1.366180  60.965300  -0.005120  -0.016610  45.724000  -0.000963  -0.003605  63.188800  -5.843430  -2.956070  63.340200  -0.004040  -0.014860  47.505200  -0.008267  -0.011861  50.204000  -4.964640  -4.143570  75.576800  -0.001844  -0.024192  50.334100  -0.009153  -0.012593   2.626010  18.775300   6.238670   2.124080   0.696045   3.149900  -4.257450  -3.399010  -0.056313   0.000000   0.000000   0.000000   5.714190  19.880500  -8.716360   1.242270   0.918808 -14.834700  -4.002840  -6.465670  -4.111700  -0.000000   0.000000   0.000000
 -0.454363  89.313200   1.026600   0.264511 -16.340100   7.494260   0.011004  12.156300   4.388780  -0.990151  24.275700   9.093500   2.607080  -4.181170   0.190063   4.346080  -8.425570 -14.038100  -6.113230  -7.518480  -0.592838 -66.843200  28.188300  -8.532900  -2.711840  -6.932250 -20.927100  17.272200 -15.711000   6.005740  43.770900  38.374100 -77.407300 -26.091000   0.006127   0.003058  -8.045520   0.003711  -0.003708 -30.135200   5.068570  -8.652230 -24.970800   0.003233  -0.002311 -17.479500   0.008420   0.000611 -28.571400  -0.400380   0.735215 -37.048800   0.000215   0.002578 -24.674500  -0.002833   0.001258 -27.859100  -0.391323   0.740054 -31.140600   0.000276   0.000408 -20.739600  -0.003631   0.005846 -33.073400  -0.456923   0.701494 -49.614400   0.000084   0.001904 -33.043300  -0.003773  -0.000750   5.766260  -5.916940   9.539020  50.728500  -1.957450  47.748300 -18.602500 -24.836500  22.233600 -70.582100 -62.583600 -61.971300 -40.414500  39.525000  83.183400  19.392000   0.000324  -0.000019   4.696020   0.009146   0.003249  40.436900   9.333590  10.744500  33.802900   0.005239  -0.022446  23.859600   0.000524  -0.019816  59.507800  -2.640770  -1.574620  59.600800  -0.005289  -0.016586  44.688900  -0.001015  -0.003548  61.767400  -5.925980  -3.194070  61.927800  -0.004296  -0.018420  46.447200  -0.008891  -0.012106  48.555800  -5.004180  -4.377740  73.121200  -0.001608  -0.031274  48.698700  -0.008453  -0.018382   2.664680  18.699800   6.193450   2.129280   0.701219   2.753960  -4.356210  -3.330720  -0.224531  -0.000000   0.000000   0.000000   5.721440  19.948100  -8.820680   1.304930   0.786713 -15.039800  -4.148040  -6.461530  -4.396940  -0.000000   0.000000  -0.000000
